<mxfile host="app.diagrams.net" modified="2021-09-29T08:43:54.353Z" agent="5.0 (Windows NT 10.0; Win64; x64) AppleWebKit/537.36 (KHTML, like Gecko) Chrome/94.0.4606.61 Safari/537.36 Edg/94.0.992.31" etag="eOGlNuhn4GdgJHVG6xbl" version="15.3.7" type="github">
  <diagram name="Page-1" id="c7558073-3199-34d8-9f00-42111426c3f3">
    <mxGraphModel dx="2248" dy="794" grid="1" gridSize="10" guides="1" tooltips="1" connect="1" arrows="1" fold="1" page="1" pageScale="1" pageWidth="826" pageHeight="1169" background="none" math="0" shadow="0">
      <root>
        <mxCell id="0" />
        <mxCell id="1" parent="0" />
        <mxCell id="2" value="&lt;p style=&quot;margin: 0px; margin-top: 4px; text-align: center; text-decoration: underline;&quot;&gt;&lt;strong&gt;Process 1&lt;br /&gt;&lt;/strong&gt;&lt;/p&gt;&lt;hr /&gt;&lt;p style=&quot;margin: 0px; margin-left: 8px;&quot;&gt;System Study&lt;/p&gt;&lt;p style=&quot;margin: 0px; margin-left: 8px;&quot;&gt;Preparation&lt;/p&gt;" style="verticalAlign=middle;align=center;overflow=fill;fontSize=12;fontFamily=Helvetica;html=1;rounded=1;fontStyle=1;strokeWidth=3;fillColor=#E6FFCC" parent="1" vertex="1">
          <mxGeometry x="1856" y="636" width="110" height="90" as="geometry" />
        </mxCell>
        <mxCell id="3" value="Engineering" style="whiteSpace=wrap;align=center;verticalAlign=middle;fontStyle=1;strokeWidth=3;fillColor=#FFFFCC" parent="1" vertex="1">
          <mxGeometry x="1866" y="470" width="90" height="60" as="geometry" />
        </mxCell>
        <mxCell id="4" value="Investors" style="whiteSpace=wrap;align=center;verticalAlign=middle;fontStyle=1;strokeWidth=3;fillColor=#FFFFCC" parent="1" vertex="1">
          <mxGeometry x="1670" y="690" width="90" height="60" as="geometry" />
        </mxCell>
        <mxCell id="5" value="ON-DEMAND SYSTEM DEVELOPMENT" style="shape=process;whiteSpace=wrap;align=center;verticalAlign=middle;size=0.0475;fontStyle=1;strokeWidth=3;fillColor=#FFCCCC" parent="1" vertex="1">
          <mxGeometry x="1821" y="791" width="400" height="50" as="geometry" />
        </mxCell>
        <mxCell id="6" value="&lt;p style=&quot;margin: 0px; margin-top: 4px; text-align: center; text-decoration: underline;&quot;&gt;&lt;strong&gt;Process 2&lt;br /&gt;&lt;/strong&gt;&lt;/p&gt;&lt;hr /&gt;&lt;p style=&quot;margin: 0px; margin-left: 8px;&quot;&gt;System Analysis&lt;/p&gt;" style="verticalAlign=middle;align=center;overflow=fill;fontSize=12;fontFamily=Helvetica;html=1;rounded=1;fontStyle=1;strokeWidth=3;fillColor=#E6FFCC" parent="1" vertex="1">
          <mxGeometry x="2010" y="546" width="110" height="90" as="geometry" />
        </mxCell>
        <mxCell id="7" value="&lt;p style=&quot;margin: 0px; margin-top: 4px; text-align: center; text-decoration: underline;&quot;&gt;&lt;strong&gt;&lt;strong&gt;Process&lt;/strong&gt; 3&lt;br /&gt;&lt;/strong&gt;&lt;/p&gt;&lt;hr /&gt;&lt;p style=&quot;margin: 0px; margin-left: 8px;&quot;&gt;List Possible&lt;/p&gt;&lt;p style=&quot;margin: 0px; margin-left: 8px;&quot;&gt;System Solutions&lt;/p&gt;" style="verticalAlign=middle;align=center;overflow=fill;fontSize=12;fontFamily=Helvetica;html=1;rounded=1;fontStyle=1;strokeWidth=3;fillColor=#E6FFCC" parent="1" vertex="1">
          <mxGeometry x="2301" y="771" width="110" height="90" as="geometry" />
        </mxCell>
        <mxCell id="8" value="&lt;p style=&quot;margin: 0px; margin-top: 4px; text-align: center; text-decoration: underline;&quot;&gt;&lt;strong&gt;&lt;strong&gt;Process&lt;/strong&gt; 4&lt;br /&gt;&lt;/strong&gt;&lt;/p&gt;&lt;hr /&gt;&lt;p style=&quot;margin: 0px; margin-left: 8px;&quot;&gt;Detail Chosen&lt;/p&gt;&lt;p style=&quot;margin: 0px; margin-left: 8px;&quot;&gt;Solution&lt;/p&gt;" style="verticalAlign=middle;align=center;overflow=fill;fontSize=12;fontFamily=Helvetica;html=1;rounded=1;fontStyle=1;strokeWidth=3;fillColor=#E6FFCC" parent="1" vertex="1">
          <mxGeometry x="2180" y="641" width="110" height="90" as="geometry" />
        </mxCell>
        <mxCell id="9" value="&lt;p style=&quot;margin: 0px; margin-top: 4px; text-align: center; text-decoration: underline;&quot;&gt;&lt;strong&gt;&lt;strong&gt;Process&lt;/strong&gt; 5&lt;br /&gt;&lt;/strong&gt;&lt;/p&gt;&lt;hr /&gt;&lt;p style=&quot;margin: 0px; margin-left: 8px;&quot;&gt;New System&lt;/p&gt;&lt;p style=&quot;margin: 0px; margin-left: 8px;&quot;&gt;Design&lt;/p&gt;" style="verticalAlign=middle;align=center;overflow=fill;fontSize=12;fontFamily=Helvetica;html=1;rounded=1;fontStyle=1;strokeWidth=3;fillColor=#E6FFCC" parent="1" vertex="1">
          <mxGeometry x="2160" y="910" width="110" height="90" as="geometry" />
        </mxCell>
        <mxCell id="10" value="&lt;p style=&quot;margin: 0px; margin-top: 4px; text-align: center; text-decoration: underline;&quot;&gt;&lt;strong&gt;&lt;strong&gt;Process&lt;/strong&gt; 6&lt;br /&gt;&lt;/strong&gt;&lt;/p&gt;&lt;hr /&gt;&lt;p style=&quot;margin: 0px; margin-left: 8px;&quot;&gt;New&lt;/p&gt;&lt;p style=&quot;margin: 0px; margin-left: 8px;&quot;&gt;System&lt;/p&gt;&lt;p style=&quot;margin: 0px; margin-left: 8px;&quot;&gt;Construction&lt;/p&gt;" style="verticalAlign=middle;align=center;overflow=fill;fontSize=12;fontFamily=Helvetica;html=1;rounded=1;fontStyle=1;strokeWidth=3;fillColor=#E6FFCC" parent="1" vertex="1">
          <mxGeometry x="1808.5" y="910" width="110" height="90" as="geometry" />
        </mxCell>
        <mxCell id="12" value="Management" style="whiteSpace=wrap;align=center;verticalAlign=middle;fontStyle=1;strokeWidth=3;fillColor=#FFFFCC" parent="1" vertex="1">
          <mxGeometry x="2311" y="460" width="90" height="60" as="geometry" />
        </mxCell>
        <mxCell id="13" value="Management" style="whiteSpace=wrap;align=center;verticalAlign=middle;fontStyle=1;strokeWidth=3;fillColor=#FFFFCC" parent="1" vertex="1">
          <mxGeometry x="1973.5" y="1050" width="90" height="60" as="geometry" />
        </mxCell>
        <mxCell id="14" value="Engineering" style="whiteSpace=wrap;align=center;verticalAlign=middle;fontStyle=1;strokeWidth=3;fillColor=#FFFFCC" parent="1" vertex="1">
          <mxGeometry x="1640" y="924.9999999999999" width="90" height="60" as="geometry" />
        </mxCell>
        <mxCell id="15" value="Vendors" style="whiteSpace=wrap;align=center;verticalAlign=middle;fontStyle=1;strokeWidth=3;fillColor=#FFFFCC" parent="1" vertex="1">
          <mxGeometry x="2170" y="1050" width="90" height="60" as="geometry" />
        </mxCell>
        <mxCell id="36" value="" style="edgeStyle=none;noEdgeStyle=1;strokeColor=#990000;strokeWidth=2" parent="1" source="3" target="2" edge="1">
          <mxGeometry width="100" height="100" relative="1" as="geometry">
            <mxPoint x="1640" y="650" as="sourcePoint" />
            <mxPoint x="1740" y="550" as="targetPoint" />
          </mxGeometry>
        </mxCell>
        <mxCell id="37" value="" style="edgeStyle=none;noEdgeStyle=1;strokeColor=#990000;strokeWidth=2" parent="1" source="4" target="2" edge="1">
          <mxGeometry width="100" height="100" relative="1" as="geometry">
            <mxPoint x="1900" y="590" as="sourcePoint" />
            <mxPoint x="2000" y="490" as="targetPoint" />
          </mxGeometry>
        </mxCell>
        <mxCell id="11" value="&lt;p style=&quot;margin: 0px; margin-top: 4px; text-align: center; text-decoration: underline;&quot;&gt;&lt;strong&gt;&lt;strong&gt;Process&lt;/strong&gt; 7&lt;br /&gt;&lt;/strong&gt;&lt;/p&gt;&lt;hr /&gt;&lt;p style=&quot;margin: 0px; margin-left: 8px;&quot;&gt;New System&lt;/p&gt;&lt;p style=&quot;margin: 0px; margin-left: 8px;&quot;&gt;Startup and&lt;/p&gt;&lt;p style=&quot;margin: 0px; margin-left: 8px;&quot;&gt;Testing&lt;/p&gt;" style="verticalAlign=middle;align=center;overflow=fill;fontSize=12;fontFamily=Helvetica;html=1;rounded=1;fontStyle=1;strokeWidth=3;fillColor=#E6FFCC" parent="1" vertex="1">
          <mxGeometry x="1963.5" y="910" width="110" height="90" as="geometry" />
        </mxCell>
        <mxCell id="51" value="" style="endArrow=none;noEdgeStyle=1;strokeColor=#990000;strokeWidth=2" parent="1" source="9" target="11" edge="1">
          <mxGeometry relative="1" as="geometry">
            <mxPoint x="1825.0081967213114" y="881" as="sourcePoint" />
            <mxPoint x="2020.327868852459" y="1050" as="targetPoint" />
          </mxGeometry>
        </mxCell>
        <mxCell id="52" value="Desired &#xa;functionality" style="text;spacingTop=-5;align=center" parent="1" vertex="1">
          <mxGeometry x="1785" y="651" width="30" height="20" as="geometry" />
        </mxCell>
        <mxCell id="53" value="Desired &#xa;functionality" style="text;spacingTop=-5;align=center" parent="1" vertex="1">
          <mxGeometry x="1861" y="596" width="30" height="20" as="geometry" />
        </mxCell>
        <mxCell id="54" value="Documentation&#xa;from similar projects" style="text;spacingTop=-5;align=center" parent="1" vertex="1">
          <mxGeometry x="1806" y="741" width="30" height="20" as="geometry" />
        </mxCell>
        <mxCell id="55" value="" style="edgeStyle=elbowEdgeStyle;elbow=horizontal;strokeColor=#990000;strokeWidth=2" parent="1" source="5" target="2" edge="1">
          <mxGeometry width="100" height="100" relative="1" as="geometry">
            <mxPoint x="1670" y="930" as="sourcePoint" />
            <mxPoint x="1770" y="830" as="targetPoint" />
            <Array as="points">
              <mxPoint x="1880" y="770" />
            </Array>
          </mxGeometry>
        </mxCell>
        <mxCell id="56" value="" style="edgeStyle=elbowEdgeStyle;elbow=horizontal;strokeColor=#990000;strokeWidth=2" parent="1" source="2" target="5" edge="1">
          <mxGeometry width="100" height="100" relative="1" as="geometry">
            <mxPoint x="1670" y="900" as="sourcePoint" />
            <mxPoint x="1770" y="800" as="targetPoint" />
            <Array as="points">
              <mxPoint x="1900" y="760" />
            </Array>
          </mxGeometry>
        </mxCell>
        <mxCell id="57" value="Elaborate&#xa;cost/benefit&#xa;ratio" style="text;spacingTop=-5;align=center" parent="1" vertex="1">
          <mxGeometry x="1926" y="741" width="30" height="20" as="geometry" />
        </mxCell>
        <mxCell id="58" value="" style="edgeStyle=elbowEdgeStyle;elbow=horizontal;strokeColor=#990000;strokeWidth=2" parent="1" source="5" target="6" edge="1">
          <mxGeometry width="100" height="100" relative="1" as="geometry">
            <mxPoint x="2000" y="770" as="sourcePoint" />
            <mxPoint x="2100" y="670" as="targetPoint" />
            <Array as="points">
              <mxPoint x="2060" y="710" />
            </Array>
          </mxGeometry>
        </mxCell>
        <mxCell id="59" value="" style="edgeStyle=elbowEdgeStyle;elbow=horizontal;strokeColor=#990000;strokeWidth=2" parent="1" source="6" target="5" edge="1">
          <mxGeometry width="100" height="100" relative="1" as="geometry">
            <mxPoint x="1970" y="770" as="sourcePoint" />
            <mxPoint x="2070" y="670" as="targetPoint" />
            <Array as="points">
              <mxPoint x="2080" y="720" />
            </Array>
          </mxGeometry>
        </mxCell>
        <mxCell id="60" value="Existing&#xa;documentation" style="text;spacingTop=-5;align=center" parent="1" vertex="1">
          <mxGeometry x="2000" y="680.9999999999998" width="30" height="20" as="geometry" />
        </mxCell>
        <mxCell id="61" value="Necessary&#xa;resources" style="text;spacingTop=-5;align=center" parent="1" vertex="1">
          <mxGeometry x="2101" y="651" width="30" height="20" as="geometry" />
        </mxCell>
        <mxCell id="62" value="Progress&#xa;reports" style="text;spacingTop=-5;align=center" parent="1" vertex="1">
          <mxGeometry x="2165" y="500" width="30" height="20" as="geometry" />
        </mxCell>
        <mxCell id="63" value="Progress&#xa;reports" style="text;spacingTop=-5;align=center" parent="1" vertex="1">
          <mxGeometry x="2260" y="546.0000000000001" width="30" height="20" as="geometry" />
        </mxCell>
        <mxCell id="64" value="Progress&#xa;reports" style="text;spacingTop=-5;align=center" parent="1" vertex="1">
          <mxGeometry x="2371" y="661.0000000000001" width="30" height="20" as="geometry" />
        </mxCell>
        <mxCell id="65" value="" style="edgeStyle=elbowEdgeStyle;elbow=horizontal;strokeColor=#990000;strokeWidth=2" parent="1" source="6" target="12" edge="1">
          <mxGeometry width="100" height="100" relative="1" as="geometry">
            <mxPoint x="1880" y="580.0000000000001" as="sourcePoint" />
            <mxPoint x="1980" y="480.0000000000001" as="targetPoint" />
            <Array as="points">
              <mxPoint x="2065" y="540" />
            </Array>
          </mxGeometry>
        </mxCell>
        <mxCell id="66" value="" style="edgeStyle=elbowEdgeStyle;elbow=vertical;entryX=0.25;entryY=1;strokeColor=#990000;strokeWidth=2" parent="1" source="8" target="12" edge="1">
          <mxGeometry width="100" height="100" relative="1" as="geometry">
            <mxPoint x="2150" y="650" as="sourcePoint" />
            <mxPoint x="2250" y="550" as="targetPoint" />
          </mxGeometry>
        </mxCell>
        <mxCell id="67" value="" style="edgeStyle=elbowEdgeStyle;elbow=horizontal;strokeColor=#990000;strokeWidth=2" parent="1" source="7" target="12" edge="1">
          <mxGeometry width="100" height="100" relative="1" as="geometry">
            <mxPoint x="2280" y="760" as="sourcePoint" />
            <mxPoint x="2380" y="660" as="targetPoint" />
          </mxGeometry>
        </mxCell>
        <mxCell id="68" value="" style="edgeStyle=elbowEdgeStyle;elbow=horizontal;strokeColor=#990000;strokeWidth=2" parent="1" source="8" target="5" edge="1">
          <mxGeometry width="100" height="100" relative="1" as="geometry">
            <mxPoint x="2190" y="780" as="sourcePoint" />
            <mxPoint x="2130" y="650" as="targetPoint" />
            <Array as="points">
              <mxPoint x="2190" y="760" />
            </Array>
          </mxGeometry>
        </mxCell>
        <mxCell id="69" value="" style="edgeStyle=segmentEdgeStyle;strokeColor=#990000;strokeWidth=2" parent="1" source="5" target="8" edge="1">
          <mxGeometry width="100" height="100" relative="1" as="geometry">
            <mxPoint x="1960" y="760" as="sourcePoint" />
            <mxPoint x="2060" y="660" as="targetPoint" />
            <Array as="points">
              <mxPoint x="2140" y="686" />
            </Array>
          </mxGeometry>
        </mxCell>
        <mxCell id="70" value="Existing&#xa;Models" style="text;spacingTop=-5;align=center" parent="1" vertex="1">
          <mxGeometry x="2150" y="740.9999999999999" width="30" height="20" as="geometry" />
        </mxCell>
        <mxCell id="71" value="Equipment&#xa;specification" style="text;spacingTop=-5;align=center" parent="1" vertex="1">
          <mxGeometry x="2235" y="741" width="30" height="20" as="geometry" />
        </mxCell>
        <mxCell id="72" value="" style="edgeStyle=elbowEdgeStyle;elbow=vertical;strokeColor=#990000;strokeWidth=2" parent="1" source="5" target="7" edge="1">
          <mxGeometry width="100" height="100" relative="1" as="geometry">
            <mxPoint x="2120" y="900" as="sourcePoint" />
            <mxPoint x="2220" y="800" as="targetPoint" />
            <Array as="points">
              <mxPoint x="2270" y="810" />
            </Array>
          </mxGeometry>
        </mxCell>
        <mxCell id="73" value="" style="edgeStyle=elbowEdgeStyle;elbow=vertical;strokeColor=#990000;strokeWidth=2" parent="1" source="7" target="5" edge="1">
          <mxGeometry width="100" height="100" relative="1" as="geometry">
            <mxPoint x="2080" y="900" as="sourcePoint" />
            <mxPoint x="2180" y="800" as="targetPoint" />
            <Array as="points">
              <mxPoint x="2270" y="830" />
            </Array>
          </mxGeometry>
        </mxCell>
        <mxCell id="74" value="Resources" style="text;spacingTop=-5;align=center" parent="1" vertex="1">
          <mxGeometry x="2241" y="791" width="30" height="20" as="geometry" />
        </mxCell>
        <mxCell id="75" value="System &#xa;Advantages &#xa;and Limitations" style="text;spacingTop=-5;align=center" parent="1" vertex="1">
          <mxGeometry x="2250" y="831.0000000000001" width="30" height="20" as="geometry" />
        </mxCell>
        <mxCell id="76" value="" style="edgeStyle=elbowEdgeStyle;elbow=horizontal;strokeColor=#990000;strokeWidth=2" parent="1" source="9" target="5" edge="1">
          <mxGeometry width="100" height="100" relative="1" as="geometry">
            <mxPoint x="2040" y="980" as="sourcePoint" />
            <mxPoint x="2140" y="880" as="targetPoint" />
            <Array as="points">
              <mxPoint x="2190" y="870" />
            </Array>
          </mxGeometry>
        </mxCell>
        <mxCell id="77" value="" style="edgeStyle=elbowEdgeStyle;elbow=horizontal;strokeColor=#990000;strokeWidth=2" parent="1" source="5" target="9" edge="1">
          <mxGeometry width="100" height="100" relative="1" as="geometry">
            <mxPoint x="2020" y="990" as="sourcePoint" />
            <mxPoint x="2120" y="890" as="targetPoint" />
            <Array as="points">
              <mxPoint x="2180" y="880" />
            </Array>
          </mxGeometry>
        </mxCell>
        <mxCell id="78" value="" style="edgeStyle=elbowEdgeStyle;elbow=horizontal;strokeColor=#990000;strokeWidth=2" parent="1" source="15" target="9" edge="1">
          <mxGeometry width="100" height="100" relative="1" as="geometry">
            <mxPoint x="2050" y="1100" as="sourcePoint" />
            <mxPoint x="2150" y="1000" as="targetPoint" />
          </mxGeometry>
        </mxCell>
        <mxCell id="79" value="Hardware and&#xa;Software specs" style="text;spacingTop=-5;align=center" parent="1" vertex="1">
          <mxGeometry x="2245" y="1010" width="30" height="20" as="geometry" />
        </mxCell>
        <mxCell id="81" value="" style="edgeStyle=elbowEdgeStyle;elbow=horizontal;exitX=0;exitY=0.75;strokeColor=#990000;strokeWidth=2" parent="1" source="9" target="13" edge="1">
          <mxGeometry width="100" height="100" relative="1" as="geometry">
            <mxPoint x="2040" y="1130" as="sourcePoint" />
            <mxPoint x="2140" y="1030" as="targetPoint" />
            <Array as="points">
              <mxPoint x="2090" y="1030" />
            </Array>
          </mxGeometry>
        </mxCell>
        <mxCell id="82" value="Progress&#xa;Reports" style="text;spacingTop=-5;align=center" parent="1" vertex="1">
          <mxGeometry x="2101.0000000000005" y="1010.0000000000001" width="30" height="20" as="geometry" />
        </mxCell>
        <mxCell id="83" value="" style="edgeStyle=elbowEdgeStyle;elbow=horizontal;strokeColor=#990000;strokeWidth=2" parent="1" source="11" target="13" edge="1">
          <mxGeometry width="100" height="100" relative="1" as="geometry">
            <mxPoint x="1820" y="1060.0000000000002" as="sourcePoint" />
            <mxPoint x="1850" y="1050" as="targetPoint" />
          </mxGeometry>
        </mxCell>
        <mxCell id="84" value="Progress&#xa;Reports" style="text;spacingTop=-5;align=center" parent="1" vertex="1">
          <mxGeometry x="2030.0000000000002" y="1010.0000000000002" width="30" height="20" as="geometry" />
        </mxCell>
        <mxCell id="85" value="" style="edgeStyle=elbowEdgeStyle;elbow=horizontal;strokeColor=#990000;strokeWidth=2" parent="1" source="10" target="13" edge="1">
          <mxGeometry width="100" height="100" relative="1" as="geometry">
            <mxPoint x="1750" y="1140" as="sourcePoint" />
            <mxPoint x="1850" y="1040" as="targetPoint" />
            <Array as="points">
              <mxPoint x="1864" y="1030" />
            </Array>
          </mxGeometry>
        </mxCell>
        <mxCell id="86" value="Progress&#xa;Reports" style="text;spacingTop=-5;align=center" parent="1" vertex="1">
          <mxGeometry x="1876" y="1050" width="30" height="20" as="geometry" />
        </mxCell>
        <mxCell id="87" value="" style="edgeStyle=elbowEdgeStyle;elbow=vertical;strokeColor=#990000;strokeWidth=2" parent="1" source="10" edge="1">
          <mxGeometry width="100" height="100" relative="1" as="geometry">
            <mxPoint x="1690" y="1140" as="sourcePoint" />
            <mxPoint x="1745" y="955.4117647058824" as="targetPoint" />
          </mxGeometry>
        </mxCell>
        <mxCell id="88" value="" style="edgeStyle=elbowEdgeStyle;elbow=horizontal;strokeColor=#990000;strokeWidth=2" parent="1" source="5" target="11" edge="1">
          <mxGeometry width="100" height="100" relative="1" as="geometry">
            <mxPoint x="1670" y="900" as="sourcePoint" />
            <mxPoint x="1770" y="800" as="targetPoint" />
            <Array as="points">
              <mxPoint x="2010" y="870" />
            </Array>
          </mxGeometry>
        </mxCell>
        <mxCell id="89" value="" style="edgeStyle=elbowEdgeStyle;elbow=horizontal;strokeColor=#990000;strokeWidth=2" parent="1" source="11" target="5" edge="1">
          <mxGeometry width="100" height="100" relative="1" as="geometry">
            <mxPoint x="1680" y="910" as="sourcePoint" />
            <mxPoint x="1780" y="810" as="targetPoint" />
            <Array as="points">
              <mxPoint x="2030" y="870" />
            </Array>
          </mxGeometry>
        </mxCell>
        <mxCell id="90" value="Version&#xa;specs" style="text;spacingTop=-5;align=center" parent="1" vertex="1">
          <mxGeometry x="1881" y="861" width="30" height="20" as="geometry" />
        </mxCell>
        <mxCell id="91" value="Certificates,&#xa;system&#xa;libraries" style="text;spacingTop=-5;align=center" parent="1" vertex="1">
          <mxGeometry x="1800" y="861.0000000000002" width="30" height="20" as="geometry" />
        </mxCell>
        <mxCell id="92" value="" style="edgeStyle=elbowEdgeStyle;elbow=horizontal;strokeColor=#990000;strokeWidth=2" parent="1" source="5" target="10" edge="1">
          <mxGeometry width="100" height="100" relative="1" as="geometry">
            <mxPoint x="1650" y="900" as="sourcePoint" />
            <mxPoint x="1750" y="800" as="targetPoint" />
            <Array as="points">
              <mxPoint x="1870" y="870" />
            </Array>
          </mxGeometry>
        </mxCell>
        <mxCell id="93" value="" style="edgeStyle=elbowEdgeStyle;elbow=horizontal;strokeColor=#990000;strokeWidth=2" parent="1" source="10" target="5" edge="1">
          <mxGeometry width="100" height="100" relative="1" as="geometry">
            <mxPoint x="1660" y="910" as="sourcePoint" />
            <mxPoint x="1760" y="810" as="targetPoint" />
            <Array as="points">
              <mxPoint x="1850" y="870" />
            </Array>
          </mxGeometry>
        </mxCell>
        <mxCell id="94" value="System&#xa;specs" style="text;spacingTop=-5;align=center" parent="1" vertex="1">
          <mxGeometry x="1760" y="965.0000000000001" width="30" height="20" as="geometry" />
        </mxCell>
        <mxCell id="95" value="Design&#xa;specs" style="text;spacingTop=-5;align=center" parent="1" vertex="1">
          <mxGeometry x="2043.5" y="861.0000000000002" width="30" height="20" as="geometry" />
        </mxCell>
        <mxCell id="96" value="System&#xa;version" style="text;spacingTop=-5;align=center" parent="1" vertex="1">
          <mxGeometry x="1970.9999999999998" y="861" width="30" height="20" as="geometry" />
        </mxCell>
        <mxCell id="7XydENh4Q1GiZ4dxHjLW-96" value="&lt;b&gt;&lt;font style=&quot;font-size: 15px&quot;&gt;初始化流程 - 服务器推送初始阵容/上次保持阵容&lt;/font&gt;&lt;/b&gt;" style="text;html=1;strokeColor=none;fillColor=none;align=center;verticalAlign=middle;whiteSpace=wrap;rounded=0;" vertex="1" parent="1">
          <mxGeometry x="10" y="10" width="340" height="20" as="geometry" />
        </mxCell>
        <mxCell id="7XydENh4Q1GiZ4dxHjLW-101" style="edgeStyle=orthogonalEdgeStyle;rounded=0;orthogonalLoop=1;jettySize=auto;html=1;entryX=0.5;entryY=0;entryDx=0;entryDy=0;fontColor=#FF0000;" edge="1" parent="1" source="7XydENh4Q1GiZ4dxHjLW-97" target="7XydENh4Q1GiZ4dxHjLW-100">
          <mxGeometry relative="1" as="geometry" />
        </mxCell>
        <mxCell id="7XydENh4Q1GiZ4dxHjLW-102" style="edgeStyle=orthogonalEdgeStyle;rounded=0;orthogonalLoop=1;jettySize=auto;html=1;entryX=0;entryY=0.5;entryDx=0;entryDy=0;fontColor=#FF0000;" edge="1" parent="1" source="7XydENh4Q1GiZ4dxHjLW-97" target="7XydENh4Q1GiZ4dxHjLW-99">
          <mxGeometry relative="1" as="geometry" />
        </mxCell>
        <mxCell id="7XydENh4Q1GiZ4dxHjLW-97" value="PveApi:addRpgDoubtfulInfoListener&#xa;addListener(&quot;SCAllRpgDoubtfulInfo&quot;)" style="whiteSpace=wrap;align=center;verticalAlign=middle;fontStyle=1;strokeWidth=1;fillColor=#FFFFCC" vertex="1" parent="1">
          <mxGeometry x="60" y="40" width="255" height="50" as="geometry" />
        </mxCell>
        <mxCell id="7XydENh4Q1GiZ4dxHjLW-99" value="pveStore:PreLoadDeckHeroInfo(data)&#xa;{&#xa;    self.heroDeckInfo = data&#xa;}" style="whiteSpace=wrap;align=left;verticalAlign=middle;fontStyle=1;strokeWidth=1;fillColor=#ffcc99;strokeColor=#36393d;" vertex="1" parent="1">
          <mxGeometry x="380" y="30" width="265" height="70" as="geometry" />
        </mxCell>
        <mxCell id="7XydENh4Q1GiZ4dxHjLW-104" value="" style="edgeStyle=orthogonalEdgeStyle;rounded=0;orthogonalLoop=1;jettySize=auto;html=1;fontColor=#FF0000;" edge="1" parent="1" source="7XydENh4Q1GiZ4dxHjLW-100" target="7XydENh4Q1GiZ4dxHjLW-103">
          <mxGeometry relative="1" as="geometry" />
        </mxCell>
        <mxCell id="7XydENh4Q1GiZ4dxHjLW-100" value="C_PveScene.PreLoadDeckHeroInfo(data)" style="whiteSpace=wrap;align=center;verticalAlign=middle;fontStyle=1;strokeWidth=1;fillColor=#d5e8d4;strokeColor=#82b366;" vertex="1" parent="1">
          <mxGeometry x="63.56" y="130" width="247.88" height="50" as="geometry" />
        </mxCell>
        <mxCell id="7XydENh4Q1GiZ4dxHjLW-103" value="PveUtils.PreLoadDeckHeroInfo(table)&#xa;{&#xa;    deckHero.Add(heroId)&#xa;    deckHeroInfo.Add(heroId, sort);&#xa;}" style="whiteSpace=wrap;align=left;verticalAlign=middle;fontStyle=1;strokeWidth=1;fillColor=#cce5ff;strokeColor=#36393d;" vertex="1" parent="1">
          <mxGeometry x="73.75" y="210" width="227.5" height="80" as="geometry" />
        </mxCell>
        <mxCell id="7XydENh4Q1GiZ4dxHjLW-107" value="&lt;span style=&quot;font-size: 15px&quot;&gt;&lt;b&gt;进入布阵界面&lt;/b&gt;&lt;/span&gt;" style="text;html=1;strokeColor=none;fillColor=none;align=center;verticalAlign=middle;whiteSpace=wrap;rounded=0;" vertex="1" parent="1">
          <mxGeometry x="80" y="330" width="222.5" height="20" as="geometry" />
        </mxCell>
        <mxCell id="7XydENh4Q1GiZ4dxHjLW-109" style="edgeStyle=orthogonalEdgeStyle;rounded=0;orthogonalLoop=1;jettySize=auto;html=1;entryX=0;entryY=0.5;entryDx=0;entryDy=0;fontColor=#FF0000;" edge="1" parent="1" source="7XydENh4Q1GiZ4dxHjLW-110" target="7XydENh4Q1GiZ4dxHjLW-111">
          <mxGeometry relative="1" as="geometry" />
        </mxCell>
        <mxCell id="7XydENh4Q1GiZ4dxHjLW-119" style="edgeStyle=orthogonalEdgeStyle;rounded=0;orthogonalLoop=1;jettySize=auto;html=1;exitX=0.5;exitY=1;exitDx=0;exitDy=0;fontColor=#FF0000;" edge="1" parent="1" source="7XydENh4Q1GiZ4dxHjLW-110" target="7XydENh4Q1GiZ4dxHjLW-114">
          <mxGeometry relative="1" as="geometry" />
        </mxCell>
        <mxCell id="7XydENh4Q1GiZ4dxHjLW-110" value="PveMain:onClickEmbattle()&#xa;{&#xa;    关闭主界面UI，打开布阵界面UI&#xa;}" style="whiteSpace=wrap;align=left;verticalAlign=middle;fontStyle=1;strokeWidth=1;fillColor=#FFFFCC" vertex="1" parent="1">
          <mxGeometry x="60" y="370" width="255" height="80" as="geometry" />
        </mxCell>
        <mxCell id="7XydENh4Q1GiZ4dxHjLW-117" style="edgeStyle=orthogonalEdgeStyle;rounded=0;orthogonalLoop=1;jettySize=auto;html=1;fontColor=#FF0000;" edge="1" parent="1" source="7XydENh4Q1GiZ4dxHjLW-111" target="7XydENh4Q1GiZ4dxHjLW-116">
          <mxGeometry relative="1" as="geometry" />
        </mxCell>
        <mxCell id="7XydENh4Q1GiZ4dxHjLW-111" value="C_PveScene.PveToDeck()" style="whiteSpace=wrap;align=left;verticalAlign=middle;fontStyle=1;strokeWidth=1;fillColor=#d5e8d4;strokeColor=#82b366;" vertex="1" parent="1">
          <mxGeometry x="470" y="385" width="180" height="50" as="geometry" />
        </mxCell>
        <mxCell id="7XydENh4Q1GiZ4dxHjLW-114" value="PveDeckUI:onOpen()&#xa;{&#xa;    self.deckHeroInfo = pveStore 中预存的heroDeckInfo&#xa;    获取解锁英雄列表 =&gt; 刷新布阵界面英雄列表: &#xa;    if (解锁英雄 id == 服务器推送数据中的 id)&#xa;    {&#xa;        恢复上次上阵阵容 - 加载模型&#xa;        C_PveScene.SetDeckModel(modeId, heroId, ...)  &#xa;    }&#xa;    item = &#xa;    {&#xa;         Cell中设置并存储数据 &#xa;         maskActive -- 是否显示遮罩(处于选中状态)&#xa;    }&#xa;    恢复上次上阵阵容 - 执行加载模型的回调&#xa;    C_PveScene.LoadDeckModel()&#xa;    Cell 排序, 战力刷新, 设置保存按键状态&#xa;}&#xa;    " style="whiteSpace=wrap;align=left;verticalAlign=middle;fontStyle=1;strokeWidth=1;fillColor=#ffcc99;strokeColor=#36393d;" vertex="1" parent="1">
          <mxGeometry x="-3.75" y="487" width="382.5" height="274" as="geometry" />
        </mxCell>
        <mxCell id="7XydENh4Q1GiZ4dxHjLW-116" value="PveManager.PveToDeck&#xa;{&#xa;     清除NPC, 挂机主角停止移动&#xa;      PveCameraManager.PveToDeck&#xa;       {&#xa;            切换相机视角至布阵界面视角&#xa;       }&#xa;       isInDeck = true  布阵参与到 PveManager 的 Update 中&#xa;       ShowDeckBg() 显示PveDeckCanvas&#xa;       DeckManager.Init()&#xa;       {&#xa;            布阵初始化 - 生成地上的五个布阵点位&#xa;       }&#xa;}" style="whiteSpace=wrap;align=left;verticalAlign=middle;fontStyle=1;strokeWidth=1;fillColor=#cce5ff;strokeColor=#36393d;" vertex="1" parent="1">
          <mxGeometry x="400" y="490.5" width="340" height="231" as="geometry" />
        </mxCell>
        <mxCell id="7XydENh4Q1GiZ4dxHjLW-120" value="&lt;span style=&quot;font-size: 15px&quot;&gt;&lt;b&gt;点击英雄头像上阵&lt;/b&gt;&lt;/span&gt;" style="text;html=1;strokeColor=none;fillColor=none;align=center;verticalAlign=middle;whiteSpace=wrap;rounded=0;" vertex="1" parent="1">
          <mxGeometry x="50" y="804.5" width="222.5" height="20" as="geometry" />
        </mxCell>
        <mxCell id="7XydENh4Q1GiZ4dxHjLW-122" style="edgeStyle=orthogonalEdgeStyle;rounded=0;orthogonalLoop=1;jettySize=auto;html=1;exitX=0.5;exitY=1;exitDx=0;exitDy=0;fontColor=#FF0000;" edge="1" parent="1" source="7XydENh4Q1GiZ4dxHjLW-123" target="7XydENh4Q1GiZ4dxHjLW-126">
          <mxGeometry relative="1" as="geometry" />
        </mxCell>
        <mxCell id="7XydENh4Q1GiZ4dxHjLW-123" value="PveDeckUICell:onClickHero&#xa;{&#xa;    发送点击事件&#xa;    self:emit(heroId, modelId, level)&#xa;}" style="whiteSpace=wrap;align=left;verticalAlign=middle;fontStyle=1;strokeWidth=1;fillColor=#FFFFCC" vertex="1" parent="1">
          <mxGeometry x="12.5" y="841" width="255" height="80" as="geometry" />
        </mxCell>
        <mxCell id="7XydENh4Q1GiZ4dxHjLW-124" style="edgeStyle=orthogonalEdgeStyle;rounded=0;orthogonalLoop=1;jettySize=auto;html=1;fontColor=#FF0000;" edge="1" parent="1" source="7XydENh4Q1GiZ4dxHjLW-125" target="7XydENh4Q1GiZ4dxHjLW-127">
          <mxGeometry relative="1" as="geometry" />
        </mxCell>
        <mxCell id="7XydENh4Q1GiZ4dxHjLW-125" value="C_PveScene.SetDeckModel(modelId, level, heroId, config.sort)" style="whiteSpace=wrap;align=left;verticalAlign=middle;fontStyle=1;strokeWidth=1;fillColor=#d5e8d4;strokeColor=#82b366;" vertex="1" parent="1">
          <mxGeometry x="575" y="1040" width="360" height="50" as="geometry" />
        </mxCell>
        <mxCell id="7XydENh4Q1GiZ4dxHjLW-128" style="edgeStyle=orthogonalEdgeStyle;rounded=0;orthogonalLoop=1;jettySize=auto;html=1;entryX=0;entryY=0.5;entryDx=0;entryDy=0;fontColor=#FF0000;" edge="1" parent="1" source="7XydENh4Q1GiZ4dxHjLW-126" target="7XydENh4Q1GiZ4dxHjLW-125">
          <mxGeometry relative="1" as="geometry" />
        </mxCell>
        <mxCell id="7XydENh4Q1GiZ4dxHjLW-126" value="PveDeckUI:onClickHero(config)&#xa;{&#xa;     if(config.maskActive)&#xa;    {&#xa;         如果当前选中了，设置为非选中&#xa;         当前选中英雄数 - 1, 战力减少&#xa;         C_PveScene.CancelDeckModel(heroId)&#xa;    }&#xa;    else&#xa;    {&#xa;         如果当前没选中&#xa;         当前选中英雄数 + 1 &#xa;         if (选中英雄数超出5) =&gt; 弹出提示返回&#xa;         else =&gt; &#xa;         {&#xa;               设置为选中&#xa;               当前选中英雄数 + 1, 战力增加 &#xa;               C_PveScene.SetDeckModel(modelId, level, heroId, config.sort)&#xa;               C_PveScene.LoadDeckModel()         &#xa;         }             &#xa;    }&#xa;}" style="whiteSpace=wrap;align=left;verticalAlign=middle;fontStyle=1;strokeWidth=1;fillColor=#ffcc99;strokeColor=#36393d;" vertex="1" parent="1">
          <mxGeometry x="-90" y="960" width="460" height="358.5" as="geometry" />
        </mxCell>
        <mxCell id="7XydENh4Q1GiZ4dxHjLW-133" style="edgeStyle=orthogonalEdgeStyle;rounded=0;orthogonalLoop=1;jettySize=auto;html=1;fontColor=#FF0000;" edge="1" parent="1" source="7XydENh4Q1GiZ4dxHjLW-127" target="7XydENh4Q1GiZ4dxHjLW-132">
          <mxGeometry relative="1" as="geometry" />
        </mxCell>
        <mxCell id="7XydENh4Q1GiZ4dxHjLW-127" value="DeckManager:SetDeckModel(int modelId, int level, int heroId, int sort = -1)&#xa;{&#xa;    获取模型的位置&#xa;    {&#xa;      	if(sort != -1) =&gt; 是服务器传来的数据 =&gt; nexPos = sort&#xa;        else =&gt; 不是服务器传来的数据 =&gt; nexPos = 遍历 hasDeckSpace 数组，找到下一个空位&#xa;    }&#xa;    heroToDeckPosDict[heroId] = nextPosIndex 存储英雄id和位置id的映射&#xa;    加载模型&#xa;    {&#xa;         renderer = PveResourceManager.GetResource(modelId)&#xa;         if(renderer == null)&#xa;         {&#xa;             该模型没有提前预加载，准备开始加载，在加载完成之前先显示loading特效 =&gt; 设置 loadingObj 的位置和动画&#xa;             List&lt;Action&gt; onAllModelLoaded.Add(()=&gt;&#xa;             {&#xa;                 此处为加载完成后执行的回调&#xa;                 renderer = PveResourceManager.GetResource(modelId)&#xa;                 renderer.transform.localPosition = loadingObj.transform.localPosition - modelOffset;&#xa;                 加载等级预制体 levelObj =&gt; levelObj.SetParent(renderer)&#xa;             })&#xa;             输入模型id，加载对应模型资源至资源字典&#xa;             PveResourceManager.Instance.LoadDeckHero(modelId)&#xa;         }&#xa;         else&#xa;         {&#xa;             该模型已经预加载，直接进行设置&#xa;         }&#xa;    }&#xa;}" style="whiteSpace=wrap;align=left;verticalAlign=middle;fontStyle=1;strokeWidth=1;fillColor=#cce5ff;strokeColor=#36393d;" vertex="1" parent="1">
          <mxGeometry x="390" y="1180" width="730" height="460" as="geometry" />
        </mxCell>
        <mxCell id="7XydENh4Q1GiZ4dxHjLW-130" value="DeckManager:LoadDeckModel()&#xa;{&#xa;    将之前存在资源字典中的资源一起加载，并执行存储的回调&#xa;   	PveResourceManager.Instance.StartLoad(() =&gt;&#xa;    {&#xa;         foreach (var action in onAllModelLoaded)&#xa;         {   &#xa;             action?.Invoke();&#xa;         }&#xa;         onAllModelLoaded.Clear();&#xa;     });&#xa;}" style="whiteSpace=wrap;align=left;verticalAlign=middle;fontStyle=1;strokeWidth=1;fillColor=#cce5ff;strokeColor=#36393d;" vertex="1" parent="1">
          <mxGeometry x="390" y="1770" width="730" height="190" as="geometry" />
        </mxCell>
        <mxCell id="7XydENh4Q1GiZ4dxHjLW-134" style="edgeStyle=orthogonalEdgeStyle;rounded=0;orthogonalLoop=1;jettySize=auto;html=1;entryX=0.5;entryY=0;entryDx=0;entryDy=0;fontColor=#FF0000;" edge="1" parent="1" source="7XydENh4Q1GiZ4dxHjLW-132" target="7XydENh4Q1GiZ4dxHjLW-130">
          <mxGeometry relative="1" as="geometry" />
        </mxCell>
        <mxCell id="7XydENh4Q1GiZ4dxHjLW-132" value="C_PveScene.LoadDeckModel() " style="whiteSpace=wrap;align=left;verticalAlign=middle;fontStyle=1;strokeWidth=1;fillColor=#d5e8d4;strokeColor=#82b366;" vertex="1" parent="1">
          <mxGeometry x="650" y="1680" width="210" height="50" as="geometry" />
        </mxCell>
      </root>
    </mxGraphModel>
  </diagram>
</mxfile>
